<svg xmlns="http://www.w3.org/2000/svg" version="1.1" xmlns:xlink="http://www.w3.org/1999/xlink" xmlns:svgjs="http://svgjs.dev/svgjs" width="1440" height="560" preserveAspectRatio="none" viewBox="0 0 1440 560"><g mask="url(&quot;#SvgjsMask1472&quot;)" fill="none"><rect width="1440" height="560" x="0" y="0" fill="url(&quot;#SvgjsLinearGradient1473&quot;)"></rect><path d="M1440 0L936.4100000000001 0L1440 66.98z" fill="rgba(255, 255, 255, .1)"></path><path d="M936.4100000000001 0L1440 66.98L1440 172.66000000000003L470.4000000000001 0z" fill="rgba(255, 255, 255, .075)"></path><path d="M470.4000000000001 0L1440 172.66000000000003L1440 409.69000000000005L311.0200000000001 0z" fill="rgba(255, 255, 255, .05)"></path><path d="M311.02 0L1440 409.69000000000005L1440 508.09000000000003L274.88 0z" fill="rgba(255, 255, 255, .025)"></path><path d="M0 560L260.74 560L0 345.47z" fill="rgba(0, 0, 0, .1)"></path><path d="M0 345.47L260.74 560L475.20000000000005 560L0 281.72z" fill="rgba(0, 0, 0, .075)"></path><path d="M0 281.72L475.20000000000005 560L980.9000000000001 560L0 246.21000000000004z" fill="rgba(0, 0, 0, .05)"></path><path d="M0 246.21000000000004L980.9000000000001 560L991.7200000000001 560L0 140.67000000000002z" fill="rgba(0, 0, 0, .025)"></path></g><defs><mask id="SvgjsMask1472"><rect width="1440" height="560" fill="#ffffff"></rect></mask><linearGradient x1="50%" y1="100%" x2="50%" y2="0%" gradientUnits="userSpaceOnUse" id="SvgjsLinearGradient1473"><stop stop-color="#0e2a47" offset="0"></stop><stop stop-color="rgba(186, 234, 51, 1)" offset="1"></stop></linearGradient></defs></svg>