<svg xmlns="http://www.w3.org/2000/svg" version="1.1" xmlns:xlink="http://www.w3.org/1999/xlink" xmlns:svgjs="http://svgjs.dev/svgjs" width="1440" height="560" preserveAspectRatio="none" viewBox="0 0 1440 560"><g mask="url(&quot;#SvgjsMask1065&quot;)" fill="none"><rect width="1440" height="560" x="0" y="0" fill="rgba(144, 191, 42, 1)"></rect><path d="M 0,51 C 144,90.6 432,232 720,249 C 1008,266 1296,158.6 1440,136L1440 560L0 560z" fill="rgba(112, 168, 36, 1)"></path><path d="M 0,543 C 57.6,491.4 172.8,291.4 288,285 C 403.2,278.6 460.8,488.6 576,511 C 691.2,533.4 748.8,404 864,397 C 979.2,390 1036.8,474.6 1152,476 C 1267.2,477.4 1382.4,418.4 1440,404L1440 560L0 560z" fill="rgba(80, 110, 14, 1)"></path></g><defs><mask id="SvgjsMask1065"><rect width="1440" height="560" fill="#ffffff"></rect></mask></defs></svg>