<svg xmlns="http://www.w3.org/2000/svg" version="1.1" xmlns:xlink="http://www.w3.org/1999/xlink" xmlns:svgjs="http://svgjs.dev/svgjs" width="1440" height="800" preserveAspectRatio="none" viewBox="0 0 1440 800"><g mask="url(&quot;#SvgjsMask1005&quot;)" fill="none"><rect width="1440" height="800" x="0" y="0" fill="rgba(144, 191, 74, 1)"></rect><path d="M 0,91 C 57.6,128.2 172.8,260.2 288,277 C 403.2,293.8 460.8,155.8 576,175 C 691.2,194.2 748.8,388.2 864,373 C 979.2,357.8 1036.8,119.4 1152,99 C 1267.2,78.6 1382.4,236.6 1440,271L1440 800L0 800z" fill="#184a7e"></path><path d="M 0,540 C 96,582.4 288,748.4 480,752 C 672,755.6 768,569.4 960,558 C 1152,546.6 1344,667.6 1440,695L1440 800L0 800z" fill="#2264ab"></path></g><defs><mask id="SvgjsMask1005"><rect width="1440" height="800" fill="#ffffff"></rect></mask></defs></svg>